<svg width="70" height="71" viewBox="0 0 70 71" fill="none" xmlns="http://www.w3.org/2000/svg">
<circle cx="35" cy="35.8477" r="35" fill="white"/>
<circle cx="35" cy="35.8477" r="35" fill="url(#paint0_linear_135_1983)"/>
<circle cx="35" cy="35.8477" r="35" fill="url(#paint1_radial_135_1983)" fill-opacity="0.2"/>
<path d="M43.75 35.2477C43.8167 35.2477 43.8667 35.3643 43.9 35.5977C43.9667 35.7977 44 36.031 44 36.2977C44 36.5643 43.9667 36.8143 43.9 37.0477C43.8667 37.281 43.8167 37.3977 43.75 37.3977H36.55V44.5477C36.55 44.6143 36.4167 44.681 36.15 44.7477C35.8833 44.781 35.6 44.7977 35.3 44.7977C34.7 44.7977 34.4 44.7477 34.4 44.6477V37.3977H27.25C27.1833 37.3977 27.1167 37.281 27.05 37.0477C27.0167 36.781 27 36.5143 27 36.2477C27 36.0143 27.0167 35.7977 27.05 35.5977C27.1167 35.3643 27.1667 35.2477 27.2 35.2477H34.4V28.0977C34.4 28.031 34.5167 27.981 34.75 27.9477C34.9833 27.881 35.2333 27.8477 35.5 27.8477C35.7667 27.8477 36 27.881 36.2 27.9477C36.4333 27.981 36.55 28.031 36.55 28.0977V35.2477H43.75Z" fill="#3D3528"/>
<defs>
<linearGradient id="paint0_linear_135_1983" x1="66.6045" y1="3.94662" x2="-15.2451" y2="83.0152" gradientUnits="userSpaceOnUse">
<stop stop-color="#FFEFD3"/>
<stop offset="1" stop-color="#9E8A65"/>
</linearGradient>
<radialGradient id="paint1_radial_135_1983" cx="0" cy="0" r="1" gradientUnits="userSpaceOnUse" gradientTransform="translate(37.181 15.5477) rotate(91.3177) scale(90.3239 37.7709)">
<stop stop-color="white"/>
<stop offset="1" stop-color="white" stop-opacity="0"/>
</radialGradient>
</defs>
</svg>
