<svg width="72" height="72" viewBox="0 0 72 72" fill="none" xmlns="http://www.w3.org/2000/svg">
<circle cx="36" cy="36" r="35.5" fill="#042544"/>
<circle cx="36" cy="36" r="35.5" fill="url(#paint0_radial_135_1988)"/>
<circle cx="36" cy="36" r="35.5" stroke="url(#paint1_linear_135_1988)"/>
<path d="M41.5735 29.8812C41.6206 29.8341 41.7384 29.8812 41.927 30.0226C42.1156 30.1169 42.3041 30.2584 42.4927 30.4469C42.6813 30.6355 42.8345 30.8358 42.9523 31.048C43.0937 31.2365 43.1409 31.3544 43.0937 31.4015L38.0026 36.4927L43.0584 41.5485C43.1055 41.5956 43.0584 41.7371 42.917 41.9728C42.752 42.1849 42.5634 42.397 42.3513 42.6091C41.927 43.0334 41.6795 43.2102 41.6088 43.1395L36.4823 38.013L31.4265 43.0688C31.3793 43.1159 31.2497 43.0806 31.0376 42.9627C30.8254 42.7977 30.6251 42.6209 30.4365 42.4324C30.2715 42.2674 30.1301 42.1024 30.0123 41.9374C29.8944 41.7253 29.8473 41.6074 29.8708 41.5838L34.962 36.4927L29.9062 31.4369C29.8591 31.3897 29.9062 31.2719 30.0476 31.0833C30.1655 30.8712 30.3187 30.6708 30.5072 30.4823C30.6958 30.2937 30.8844 30.1523 31.0729 30.058C31.2615 29.9166 31.3793 29.8694 31.4265 29.9166L36.4823 34.9724L41.5735 29.8812Z" fill="white"/>
<defs>
<radialGradient id="paint0_radial_135_1988" cx="0" cy="0" r="1" gradientUnits="userSpaceOnUse" gradientTransform="translate(64.9115 3.68981) rotate(132.717) scale(60.0319 72.7029)">
<stop stop-color="#1D3B56"/>
<stop offset="1" stop-color="#082C4E" stop-opacity="0"/>
</radialGradient>
<linearGradient id="paint1_linear_135_1988" x1="65.7733" y1="22.2234" x2="-15.4792" y2="82.4643" gradientUnits="userSpaceOnUse">
<stop stop-color="#F3E8D4"/>
<stop offset="1" stop-color="#0A2C4C"/>
</linearGradient>
</defs>
</svg>
