<svg width="40" height="40" viewBox="0 0 40 40" fill="none" xmlns="http://www.w3.org/2000/svg">
<rect width="40" height="40" rx="10" fill="url(#paint0_radial_9_198)" fill-opacity="0.3"/>
<rect width="40" height="40" rx="10" fill="url(#paint1_linear_9_198)"/>
<rect x="0.5" y="0.5" width="39" height="39" rx="9.5" stroke="white" stroke-opacity="0.2"/>
<rect x="0.5" y="0.5" width="39" height="39" rx="9.5" stroke="url(#paint2_radial_9_198)" stroke-opacity="0.4"/>
<path d="M19.2096 14.4827L19.9531 15.4385C18.2538 16.9608 17.1917 18.7309 16.7669 20.7489C17.4749 20.7489 18.006 20.9613 18.36 21.3861C18.714 21.8109 18.891 22.4128 18.891 23.1916C18.891 23.9705 18.5901 24.6254 17.9883 25.1565C17.4218 25.6875 16.7669 25.953 16.0234 25.953C15.3154 25.953 14.7667 25.7583 14.3772 25.3689C13.9878 24.944 13.7931 24.3953 13.7931 23.7227C13.7931 20.5719 15.5986 17.4919 19.2096 14.4827ZM25.9007 14.4827L26.6441 15.4385C24.8386 17.067 23.7765 18.8371 23.4579 20.7489C24.1306 20.7489 24.6439 20.979 24.9979 21.4392C25.3873 21.864 25.5821 22.4659 25.5821 23.2447C25.5821 23.9882 25.2811 24.6254 24.6793 25.1565C24.1129 25.6875 23.4579 25.953 22.7145 25.953C22.0064 25.953 21.4577 25.7583 21.0683 25.3689C20.6788 24.944 20.4841 24.3953 20.4841 23.7227C20.4841 20.324 22.2896 17.244 25.9007 14.4827Z" fill="#3D3528"/>
<defs>
<radialGradient id="paint0_radial_9_198" cx="0" cy="0" r="1" gradientUnits="userSpaceOnUse" gradientTransform="translate(21.2463 8.4) rotate(91.3177) scale(51.6136 21.5833)">
<stop stop-color="white"/>
<stop offset="1" stop-color="white" stop-opacity="0"/>
</radialGradient>
<linearGradient id="paint1_linear_9_198" x1="38.0597" y1="1.77083" x2="-8.71151" y2="46.9529" gradientUnits="userSpaceOnUse">
<stop stop-color="#FFEFD3"/>
<stop offset="1" stop-color="#9E8A65"/>
</linearGradient>
<radialGradient id="paint2_radial_9_198" cx="0" cy="0" r="1" gradientUnits="userSpaceOnUse" gradientTransform="translate(20.8581 3.02819e-06) rotate(90.4081) scale(27.8007 14.0747)">
<stop stop-color="white"/>
<stop offset="1" stop-color="white" stop-opacity="0"/>
</radialGradient>
</defs>
</svg>
