<svg width="270" height="90" viewBox="0 0 270 90" fill="none" xmlns="http://www.w3.org/2000/svg">
<path d="M10 0.5H260C265.247 0.5 269.5 4.75329 269.5 10V80C269.5 85.2467 265.247 89.5 260 89.5H9.99999C4.75329 89.5 0.5 85.2467 0.5 80V10C0.5 4.75329 4.75329 0.5 10 0.5Z" fill="#042544"/>
<path d="M10 0.5H260C265.247 0.5 269.5 4.75329 269.5 10V80C269.5 85.2467 265.247 89.5 260 89.5H9.99999C4.75329 89.5 0.5 85.2467 0.5 80V10C0.5 4.75329 4.75329 0.5 10 0.5Z" fill="url(#paint0_radial_0_46)"/>
<path d="M10 0.5H260C265.247 0.5 269.5 4.75329 269.5 10V80C269.5 85.2467 265.247 89.5 260 89.5H9.99999C4.75329 89.5 0.5 85.2467 0.5 80V10C0.5 4.75329 4.75329 0.5 10 0.5Z" stroke="url(#paint1_linear_0_46)"/>
<defs>
<radialGradient id="paint0_radial_0_46" cx="0" cy="0" r="1" gradientUnits="userSpaceOnUse" gradientTransform="translate(246.516 3.45832) rotate(160.149) scale(167.001 129.606)">
<stop stop-color="#1D3B56"/>
<stop offset="1" stop-color="#082C4E" stop-opacity="0"/>
</radialGradient>
<linearGradient id="paint1_linear_0_46" x1="249.84" y1="27.2872" x2="168.175" y2="208.928" gradientUnits="userSpaceOnUse">
<stop stop-color="#F3E8D4"/>
<stop offset="1" stop-color="#0A2C4C"/>
</linearGradient>
</defs>
</svg>
