<svg width="22" height="22" viewBox="0 0 22 22" fill="none" xmlns="http://www.w3.org/2000/svg">
<path d="M16 1H6C3.23858 1 1 3.19468 1 5.90195V15.7058C1 18.4131 3.23858 20.6078 6 20.6078H16C18.7614 20.6078 21 18.4131 21 15.7058V5.90195C21 3.19468 18.7614 1 16 1Z" stroke="white" stroke-width="2" stroke-linecap="round" stroke-linejoin="round"/>
<path d="M15.0002 10.1859C15.1236 11.0019 14.9815 11.8352 14.594 12.5673C14.2065 13.2995 13.5933 13.8932 12.8418 14.264C12.0903 14.6349 11.2386 14.764 10.408 14.6329C9.57732 14.5019 8.80996 14.1174 8.21503 13.5341C7.62011 12.9509 7.22793 12.1986 7.09426 11.3842C6.9606 10.5698 7.09226 9.73485 7.47052 8.99807C7.84878 8.26129 8.45438 7.6602 9.20118 7.2803C9.94798 6.9004 10.7979 6.76103 11.6302 6.88202C12.4791 7.00544 13.265 7.39326 13.8719 7.9882C14.4787 8.58314 14.8743 9.35366 15.0002 10.1859Z" stroke="white" stroke-width="2" stroke-linecap="round" stroke-linejoin="round"/>
<path d="M16.5 5.41162H16.51" stroke="white" stroke-width="2" stroke-linecap="round" stroke-linejoin="round"/>
</svg>
