<svg width="372" height="1383" viewBox="0 0 372 1383" fill="none" xmlns="http://www.w3.org/2000/svg">
<path d="M11 1.34766C5.20101 1.34766 0.5 6.04866 0.5 11.8477V1371.85C0.5 1377.65 5.201 1382.35 11 1382.35H361C366.799 1382.35 371.5 1377.65 371.5 1371.85V691.848V11.8477C371.5 6.04867 366.799 1.34766 361 1.34766H11Z" fill="#042544"/>
<path d="M11 1.34766C5.20101 1.34766 0.5 6.04866 0.5 11.8477V1371.85C0.5 1377.65 5.201 1382.35 11 1382.35H361C366.799 1382.35 371.5 1377.65 371.5 1371.85V691.848V11.8477C371.5 6.04867 366.799 1.34766 361 1.34766H11Z" fill="url(#paint0_radial_135_1837)"/>
<path d="M11 1.34766C5.20101 1.34766 0.5 6.04866 0.5 11.8477V1371.85C0.5 1377.65 5.201 1382.35 11 1382.35H361C366.799 1382.35 371.5 1377.65 371.5 1371.85V691.848V11.8477C371.5 6.04867 366.799 1.34766 361 1.34766H11Z" stroke="url(#paint1_linear_135_1837)"/>
<defs>
<radialGradient id="paint0_radial_135_1837" cx="0" cy="0" r="1" gradientUnits="userSpaceOnUse" gradientTransform="translate(338.818 54.8753) rotate(103.904) scale(895.775 507.714)">
<stop stop-color="#1D3B56"/>
<stop offset="1" stop-color="#082C4E" stop-opacity="0"/>
</radialGradient>
<linearGradient id="paint1_linear_135_1837" x1="343.373" y1="420.252" x2="-296.88" y2="547.523" gradientUnits="userSpaceOnUse">
<stop stop-color="#F3E8D4"/>
<stop offset="1" stop-color="#0A2C4C"/>
</linearGradient>
</defs>
</svg>
