<svg width="370" height="1280" viewBox="0 0 370 1280" fill="none" xmlns="http://www.w3.org/2000/svg">
<path d="M0 10C0 4.47715 4.47715 0 10 0H360C365.523 0 370 4.47715 370 10V640V1270C370 1275.52 365.523 1280 360 1280H9.99999C4.47715 1280 0 1275.52 0 1270V10Z" fill="url(#paint0_linear_135_1866)"/>
<path d="M0 10C0 4.47715 4.47715 0 10 0H360C365.523 0 370 4.47715 370 10V640V1270C370 1275.52 365.523 1280 360 1280H9.99999C4.47715 1280 0 1275.52 0 1270V10Z" fill="url(#paint1_radial_135_1866)" fill-opacity="0.3"/>
<defs>
<linearGradient id="paint0_linear_135_1866" x1="495.5" y1="416.338" x2="-40.296" y2="322.647" gradientUnits="userSpaceOnUse">
<stop offset="0.0568692" stop-color="#E7BF73"/>
<stop offset="0.459767" stop-color="#FFF2AF"/>
<stop offset="1" stop-color="#D2B988"/>
</linearGradient>
<radialGradient id="paint1_radial_135_1866" cx="0" cy="0" r="1" gradientUnits="userSpaceOnUse" gradientTransform="translate(196.528 268.8) rotate(90.381) scale(1651.24 199.694)">
<stop stop-color="white"/>
<stop offset="1" stop-color="white" stop-opacity="0"/>
</radialGradient>
</defs>
</svg>
