<svg width="25" height="21" viewBox="0 0 25 21" fill="none" xmlns="http://www.w3.org/2000/svg">
<path d="M2.48498 9.31149C2.48498 9.31149 12.3719 5.26629 15.8008 3.84197C17.1152 3.27224 21.5729 1.44901 21.5729 1.44901C21.5729 1.44901 23.6302 0.651514 23.4588 2.58847C23.4015 3.38612 22.9443 6.17783 22.4871 9.19745C21.8014 13.4706 21.0584 18.1423 21.0584 18.1423C21.0584 18.1423 20.9442 19.4527 19.9727 19.6807C19.0011 19.9086 17.401 18.883 17.1152 18.6551C16.8867 18.4841 12.8291 15.9203 11.3433 14.667C10.9432 14.3252 10.486 13.6414 11.4004 12.8437C13.4577 10.9637 15.9152 8.62772 17.401 7.14646C18.0867 6.46269 18.7726 4.86739 15.9152 6.8045C11.8576 9.5962 7.85708 12.2171 7.85708 12.2171C7.85708 12.2171 6.94283 12.7868 5.22835 12.274C3.51388 11.7612 1.51363 11.0776 1.51363 11.0776C1.51363 11.0776 0.142175 10.2229 2.48528 9.31149H2.48498Z" stroke="white" stroke-width="2"/>
</svg>
